<?xml version="1.0" encoding="UTF-8"?>
<svg width="131px" height="30px" viewBox="0 0 131 30" version="1.1" xmlns="http://www.w3.org/2000/svg" xmlns:xlink="http://www.w3.org/1999/xlink">
  <!-- Generator: Sketch 46.1 (44463) - http://www.bohemiancoding.com/sketch -->
  <title>logo_trustingsocial</title>
  <desc>Created with Sketch.</desc>
  <defs></defs>
  <g id="slide" stroke="none" stroke-width="1" fill="none" fill-rule="evenodd">
    <g id="02" transform="translate(-60.000000, -53.000000)">
      <g id="logo_trustingsocial" transform="translate(60.000000, 52.939880)">
        <path d="M70.3358717,22.086012 C70.4792585,22.3004609 70.7117435,22.4386774 70.9686373,22.4622445 L76.8684168,22.4622445 L75.3635471,25.13002 L69.8570741,25.13002 C68.7682966,25.13002 68.2239078,25.4891182 68.2239078,26.2073747 C68.1773146,26.5509619 68.3427655,26.8887174 68.6428858,27.0624048 C68.9572545,27.2423447 69.315511,27.3312024 69.677495,27.3188778 L74.6367535,27.3188778 L73.157495,29.9866533 L69.6176754,29.9866533 C68.5193387,30.0758717 67.4306212,29.7252505 66.5908016,29.0118637 C65.8733267,28.3008818 65.4910822,27.3189379 65.5390581,26.3099399 C65.5276353,25.460982 65.8324449,24.6380561 66.3941483,24.0013226 C66.9998597,23.3392786 67.7985571,22.8845892 68.6770942,22.7016433 C68.3834669,22.627996 68.1293988,22.4443287 67.9673747,22.1886373 C67.8165932,21.9296393 67.7424649,21.6331263 67.7536473,21.3336072 C67.7698798,21.017014 67.8935471,20.7153908 68.1042084,20.4785772 C68.4074549,20.1461122 68.8142886,19.9261323 69.258517,19.8543487 C67.7075351,19.1215431 66.7447695,17.5326253 66.8131263,15.8185972 L66.8131263,10.5343888 C66.7475952,9.31521042 67.1903206,8.12332665 68.0357916,7.24250501 C68.9346493,6.41182365 70.1312224,5.9801002 71.3533467,6.0454509 C71.9509419,6.02470942 72.5491383,6.05903808 73.1404208,6.14801603 C73.5041483,6.20344689 73.8581964,6.30997996 74.1921042,6.46436874 L77.5524649,6.46436874 L76.2613226,8.49937876 L76.2613226,15.7843888 C76.321022,16.8887976 75.9571142,17.9744489 75.2438477,18.8197996 C74.3135471,19.6810822 73.0914228,20.1577154 71.8236673,20.1536273 C71.3188978,20.1127455 70.817495,20.2656313 70.4213627,20.5811423 C70.2205611,20.8206012 70.1114429,21.1236673 70.1135471,21.4362325 C70.1271944,21.669018 70.2040882,21.8936874 70.3358717,22.086012 Z M69.4808417,15.8442084 L69.4808417,10.4403607 C69.42998,9.87210421 69.6521242,9.31352705 70.0793387,8.93549098 C70.9243888,8.30699399 72.0815832,8.30699399 72.9266333,8.93549098 C73.3605812,9.30931864 73.5868136,9.87006012 73.5337275,10.4403607 L73.5337275,15.8442084 C73.5777956,16.4001403 73.3480762,16.9426052 72.9180962,17.2977956 C72.0798998,17.9466733 70.908998,17.9466733 70.0708016,17.2977956 C69.650982,16.9358116 69.4260721,16.3972545 69.4637074,15.8442084 L69.4808417,15.8442084 Z M0.00360721443,8.61054108 L0.00360721443,6.25064128 L1.71006012,6.25064128 L1.71006012,2.88174349 L4.42911824,1.97543086 L4.42911824,6.25064128 L8.00320641,6.25064128 L8.00320641,8.61054108 L4.42911824,8.61054108 L4.42911824,20.641022 C4.42911824,21.9178557 4.89084168,22.5563327 5.81428858,22.5563327 C6.30571142,22.5988377 6.78006012,22.3649699 7.0455511,21.9492385 L8.91811623,23.9158317 C8.55108216,24.3346293 8.08731463,24.6575351 7.56715431,24.8563527 C7.04957916,25.0872745 6.49190381,25.2150902 5.9254509,25.2325852 C4.74769539,25.3241483 3.58881764,24.8962124 2.75326653,24.0612024 C1.99232465,23.090501 1.62042084,21.8711423 1.71006012,20.641022 L1.71006012,8.61054108 L0.00360721443,8.61054108 Z M13.6807214,6.49857715 C14.0878557,6.18294589 14.5939479,6.02236473 15.1086373,6.0454509 C15.6907214,5.98629259 16.2723246,6.16166333 16.7246693,6.53278557 L15.8012224,8.92689379 C15.5628457,8.72987976 15.2522044,8.64294589 14.9461323,8.68749499 C14.4596393,8.69519038 13.9993587,8.90975952 13.6807214,9.27751503 C13.3130261,9.68705411 13.1197395,10.2239279 13.1420441,10.7737876 L13.1420441,24.8050701 L10.431523,24.8050701 L10.431523,6.29338677 L12.21,6.29338677 L12.8256313,7.47336673 C13.042485,7.09442886 13.3332265,6.76292585 13.6807214,6.49857715 Z M24.3431062,20.5811423 L24.3431062,6.25064128 L27.0535671,6.25064128 L27.0535671,24.7708617 L25.2665531,24.7708617 L24.6509218,23.9158317 C24.3966733,24.2476954 24.0906613,24.5363928 23.7445491,24.7708617 C23.1533868,25.1181764 22.4701202,25.2762926 21.786493,25.2240481 C20.6719238,25.2752104 19.5971543,24.8042285 18.8793788,23.9500401 C18.108998,22.8981162 17.7336673,21.6085371 17.8190982,20.3075351 L17.8190982,6.25064128 L20.521022,6.25064128 L20.521022,20.5811423 C20.4894589,21.1162124 20.6886974,21.6391984 21.0682966,22.0176553 C21.4409218,22.357996 21.9319238,22.5390782 22.4363327,22.5221242 C22.9289579,22.5355912 23.409499,22.3682766 23.7872946,22.0518637 C24.1844489,21.6702204 24.3886172,21.1300401 24.3431062,20.5811423 Z M37.7929058,17.6056112 C38.0136072,17.9823848 38.180501,18.3881964 38.2888377,18.8112024 C38.4119639,19.2393788 38.4752705,19.6824649 38.4769539,20.128016 C38.4706413,20.7642084 38.3668737,21.3957715 38.1691383,22.000521 C37.9923848,22.5924649 37.7019439,23.1443086 37.3141082,23.6250902 C36.9018036,24.1098397 36.3880762,24.4980361 35.8092385,24.7623246 C35.12501,25.0611824 34.3838477,25.2070942 33.6373948,25.1898397 C32.9866533,25.198016 32.3400601,25.0849299 31.7306814,24.8563527 C31.1736673,24.6467735 30.6646894,24.3268737 30.2343487,23.9158317 C29.8115832,23.5063527 29.482004,23.0106012 29.2681563,22.4622445 C29.0350701,21.8628457 28.918978,21.2243086 28.9261323,20.5811423 L28.9261323,19.3071343 L31.6365932,19.88002 L31.6365932,20.5811423 C31.6135671,21.1089379 31.8155711,21.6217034 32.1924048,21.991984 C32.5840882,22.3543287 33.1043086,22.5451503 33.6373948,22.5221242 C35.033988,22.5221242 35.7322846,21.8751102 35.7322846,20.5811423 C35.7491784,20.1762926 35.6971743,19.771503 35.5783768,19.3840882 C35.45501,19.0503607 35.2789178,18.7385772 35.0567735,18.4606413 C34.7167335,18.1115832 34.3508417,17.7886172 33.9623447,17.4944489 L32.8422445,16.5795391 C32.466012,16.2774349 32.0926052,15.9639078 31.7221443,15.639018 C31.3492184,15.3113026 31.0005812,14.9569539 30.6789379,14.5787375 C30.2258717,14.0513026 29.8567335,13.4571944 29.584509,12.8173948 C29.2934669,12.104008 29.1509218,11.3388577 29.1655311,10.5685972 C29.1589178,9.93943888 29.2751303,9.31496994 29.5075551,8.73024048 C29.7214629,8.19150301 30.0479158,7.70470942 30.4652104,7.30232465 C30.887014,6.90126253 31.3839078,6.58743487 31.9273347,6.37887776 C32.521984,6.1509018 33.154509,6.03769539 33.7913026,6.0454509 C35.0090381,5.95052104 36.2077154,6.39066132 37.0747094,7.25104208 C37.8576553,8.14743487 38.2649699,9.31118236 38.2118838,10.5001804 L38.2118838,11.7827856 L35.5612425,11.1756914 L35.5612425,10.5001804 C35.5912425,9.9707014 35.4097996,9.45096192 35.0567735,9.05519038 C34.7049499,8.69573146 34.2168337,8.50298597 33.7143487,8.5250501 C33.2078958,8.49937876 32.7161723,8.69981964 32.3719238,9.07226453 C32.033988,9.49196393 31.8633667,10.021984 31.8931263,10.5600601 C31.8874148,11.2578156 32.1264529,11.9355511 32.5685772,12.4753707 C33.0545892,13.0777154 33.6019238,13.6279359 34.2017435,14.117014 L36.1426653,15.7416433 C36.7879359,16.2717234 37.3449499,16.9008818 37.7929058,17.6056112 Z M45.4540882,22.5563327 C45.945511,22.5988377 46.4199198,22.3649699 46.6853507,21.9492385 L48.5579158,23.9158317 C48.1908818,24.3346293 47.7271142,24.6575351 47.2069539,24.8563527 C46.692024,25.0861924 46.1374148,25.2139479 45.5737876,25.2325852 C44.3960922,25.3241483 43.2372144,24.8962124 42.4016032,24.0612024 C41.6406613,23.090501 41.2687575,21.8711423 41.3584569,20.641022 L41.3584569,8.61054108 L39.6483367,8.61054108 L39.6483367,6.25064128 L41.3584569,6.25064128 L41.3584569,2.88174349 L44.0689178,1.97543086 L44.0689178,6.25064128 L47.643006,6.25064128 L47.643006,8.61054108 L44.0689178,8.61054108 L44.0689178,20.641022 C44.0689178,21.9178557 44.5306413,22.5563327 45.4540882,22.5563327 Z M51.4435981,0.0601202405 L51.4435981,0.0601202405 C51.8185345,0.0673060999 52.1705306,0.246457441 52.3970741,0.54751503 C52.6551102,0.876072144 52.7911022,1.28410822 52.7818437,1.70182365 C52.773487,2.12729459 52.6330461,2.5395992 52.3799399,2.88174349 C52.1532866,3.19719439 51.78499,3.37977956 51.3966733,3.36913828 C50.999519,3.37659319 50.6222645,3.19587174 50.3791383,2.88174349 C50.1085972,2.54903808 49.9660521,2.13048096 49.9772946,1.70182365 C49.9747094,1.28747495 50.1168337,0.885270541 50.3791383,0.564589178 C50.6117768,0.2510049 50.9773352,0.0647974289 51.3666151,0.0601202405 L51.4435981,0.0601202405 Z M49.9772946,24.7965331 L49.9772946,6.25064128 L52.6877555,6.25064128 L52.6877555,24.7965331 L49.9772946,24.7965331 Z M60.0411824,6.0454509 C61.2118437,5.97408818 62.358998,6.39577154 63.2048297,7.20829659 C64.021022,8.07072144 64.4502204,9.22863727 64.3933467,10.4146894 L64.3933467,24.8050701 L61.6828257,24.8050701 L61.6828257,10.5001804 C61.7245491,9.93234469 61.4809419,9.38098196 61.032986,9.02951904 C60.1670741,8.3592986 58.9575752,8.3592986 58.0916633,9.02951904 C57.640521,9.37917836 57.3935471,9.93084168 57.4332866,10.5001804 L57.4332866,24.8050701 L54.7227655,24.8050701 L54.7227655,6.34466934 L56.4756313,6.34466934 L57.0912625,7.19975952 C57.4044289,6.83621242 57.7923246,6.54456914 58.2284369,6.34466934 C58.8057114,6.12150301 59.4227856,6.01965932 60.0411824,6.0454509 Z" id="trusting" fill="#3498DB"></path>
        <path d="M98.9114429,8.61054108 C99.1668938,9.20717435 99.2922445,9.85136273 99.2790782,10.5001804 L99.2790782,20.6238878 C99.2882164,21.2834669 99.1631663,21.9380561 98.9114429,22.5477355 C98.6806413,23.0997595 98.3335671,23.595511 97.8939078,24.0013226 C97.4577956,24.3837475 96.9529058,24.6797194 96.4061723,24.873487 C95.8289579,25.0875752 95.2175952,25.1947695 94.602024,25.1898397 C93.9724449,25.1954309 93.3469539,25.0882966 92.7551303,24.873487 C92.199499,24.672986 91.6904609,24.3617435 91.2587976,23.9585772 C90.8296593,23.5509619 90.4941283,23.0550301 90.2754709,22.50499 C90.0342685,21.8927255 89.9151703,21.2391583 89.9249098,20.5811423 L89.9249098,10.5343888 C89.9149299,9.89579158 90.0341483,9.26176353 90.2754709,8.67042084 C90.7270341,7.57316633 91.6312425,6.7250501 92.7551303,6.34466934 C93.3492385,6.14062124 93.9738277,6.03943888 94.602024,6.0454509 C95.2123046,6.03541082 95.8197595,6.13088176 96.3975752,6.32759519 C96.9480962,6.51066132 97.4567134,6.80128257 97.8939078,7.18262525 C98.3280962,7.58320641 98.6745691,8.0693988 98.9114429,8.61054108 Z M96.5686172,20.5811423 L96.5686172,10.5001804 C96.6075752,9.94719439 96.3937876,9.40635271 95.9871944,9.02951904 C95.1780962,8.36146293 94.0088176,8.36146293 93.1997194,9.02951904 C92.7993788,9.41002004 92.5893788,9.94911824 92.6268337,10.5001804 L92.6268337,20.5811423 C92.5923848,21.1242084 92.802505,21.6542886 93.1997194,22.0261924 C94.0088176,22.6942485 95.1780962,22.6942485 95.9871944,22.0261924 C96.3907214,21.658016 96.6046894,21.1261924 96.5686172,20.5811423 Z M124.947475,7.19116232 C125.772265,8.08911824 126.198036,9.28298597 126.127455,10.5001804 L126.127455,24.7965331 L124.340441,24.7965331 L123.72481,23.7362525 C123.471643,24.1671944 123.112545,24.5262926 122.681663,24.7793988 C122.107455,25.0971343 121.455932,25.2481563 120.800561,25.215511 C120.29519,25.2124449 119.794329,25.1197996 119.321303,24.9419038 C118.821764,24.7583567 118.369118,24.4662926 117.996012,24.0868136 C117.56976,23.6586373 117.237715,23.1460521 117.021222,22.5819439 C116.769259,21.8716232 116.650401,21.1208417 116.670661,20.3674148 C116.656052,19.5486373 116.780381,18.7333467 117.038357,17.9561723 C117.268317,17.2929259 117.590741,16.6653908 117.996012,16.0922044 C118.395812,15.5472745 118.857776,15.0508617 119.372585,14.6129459 C119.868517,14.1797194 120.361623,13.7864128 120.851844,13.4330261 L122.271222,12.415491 C122.679739,12.1202405 123.060361,11.7882565 123.408397,11.4236273 L123.408397,10.5087776 C123.431723,10.0043687 123.297234,9.50519038 123.023627,9.0808016 C122.738898,8.70306613 122.281082,8.49673347 121.809499,8.53358717 C120.931383,8.42470942 120.096914,8.94541082 119.808697,9.78198397 L117.534289,8.32839679 C117.739599,8.03272545 117.959279,7.74739479 118.192665,7.47336673 C118.436633,7.18178357 118.72521,6.93072144 119.047695,6.72943888 C119.416413,6.50278557 119.817054,6.33276553 120.236212,6.22496994 C120.759138,6.09601202 121.296613,6.0356513 121.83517,6.0454509 C122.986353,5.98094188 124.112946,6.3956513 124.947475,7.19116232 Z M123.468277,20.128016 C123.483968,20.7368537 123.307455,21.3352305 122.963808,21.8380762 C122.597074,22.3368337 121.999299,22.6114629 121.381984,22.5648697 C120.807655,22.5983567 120.250762,22.3610621 119.877114,21.9235671 C119.500341,21.4068337 119.315892,20.7747896 119.355511,20.1365531 C119.343727,19.4903206 119.496733,18.8517836 119.80016,18.2811222 C120.093547,17.7415431 120.462024,17.2463928 120.894589,16.8104008 C121.313447,16.3878758 121.774749,16.0096593 122.271222,15.6817635 L123.502485,14.878016 L123.468277,20.128016 Z M109.129178,7.0458517 C109.57509,7.42412826 109.926433,7.90136273 110.155251,8.43955912 C110.418096,9.0938477 110.543267,9.79533066 110.522946,10.5001804 L110.522946,11.2868537 L107.812425,11.2868537 L107.812425,10.5001804 C107.851383,9.94719439 107.637595,9.40635271 107.231002,9.02951904 C106.421964,8.36146293 105.252625,8.36146293 104.443527,9.02951904 C104.043246,9.41002004 103.833246,9.94911824 103.870701,10.5001804 L103.870701,20.5726052 C103.836192,21.1156713 104.046313,21.6457515 104.443527,22.0176553 C104.830822,22.3563126 105.331563,22.5364329 105.845832,22.5221242 C106.351263,22.5321042 106.843226,22.359018 107.231002,22.0347295 C107.638016,21.6654108 107.852465,21.1293186 107.812425,20.5811423 L107.812425,20.2819238 L110.522946,19.4268337 L110.522946,20.5213226 C110.5402,21.2231663 110.41509,21.9212224 110.155251,22.5734068 C109.92992,23.1210421 109.581824,23.6095792 109.137715,24.0013226 C108.69992,24.3817635 108.191483,24.6722645 107.641443,24.8563527 C106.456593,25.2520641 105.175251,25.2520641 103.990401,24.8563527 C103.437535,24.6785772 102.927896,24.3873547 102.494068,24.0013226 C102.066553,23.5956914 101.731202,23.1028858 101.510741,22.5563327 C101.26509,21.9274148 101.145932,21.2561723 101.16018,20.5811423 L101.16018,10.5429259 C101.138657,9.82845691 101.257756,9.11669339 101.510741,8.44809619 C101.721523,7.91356713 102.058978,7.43825651 102.494068,7.06292585 C102.931022,6.6988978 103.441383,6.43346693 103.990401,6.2848497 C104.592084,6.12048096 105.213547,6.03991984 105.837295,6.0454509 C106.442826,6.03276553 107.047214,6.10472946 107.632846,6.25917836 C108.182044,6.41158317 108.692285,6.67983968 109.129178,7.0458517 Z M113.357286,0.0601202405 L113.357286,0.0601202405 C113.732226,0.0673060999 114.084276,0.246457441 114.310762,0.54751503 C114.568798,0.876072144 114.70479,1.28410822 114.695531,1.70182365 C114.687174,2.12729459 114.546733,2.5395992 114.293627,2.88174349 C114.066974,3.19719439 113.698677,3.37977956 113.310361,3.36913828 C112.913267,3.37659319 112.535952,3.19587174 112.292826,2.88174349 C112.022285,2.54903808 111.879739,2.13048096 111.890982,1.70182365 C111.888397,1.28747495 112.030521,0.885270541 112.292826,0.564589178 C112.525464,0.2510049 112.891023,0.0647974289 113.280302,0.0601202405 L113.357286,0.0601202405 Z M128.117435,24.8032064 L128.117435,0.0577154309 L130.822846,0.0577154309 L130.822846,24.8032064 L128.117435,24.8032064 Z M87.5222645,17.6056112 C87.7332866,17.97 87.8943487,18.3611423 88.0010621,18.7684569 C88.1241884,19.1966333 88.187495,19.6397194 88.1891784,20.0852104 C88.1928457,20.7349299 88.0947295,21.3811623 87.8984369,22.000521 C87.7217435,22.5924649 87.4313026,23.1443086 87.0434068,23.6250902 C86.6311623,24.1098397 86.1174349,24.4980361 85.5385371,24.7623246 C84.8543687,25.0611824 84.1131463,25.2070942 83.3667535,25.1898397 C82.7159519,25.198016 82.0693587,25.0849299 81.45998,24.8563527 C80.9060321,24.6457515 80.4000601,24.3259118 79.9722445,23.9158317 C79.5494188,23.5063527 79.2198998,23.0106012 79.005992,22.4622445 C78.7729659,21.8628457 78.6568737,21.2243086 78.6639679,20.5811423 L78.6639679,19.3328056 L81.3659519,19.88002 L81.3659519,20.5811423 C81.353988,21.115491 81.5719238,21.6292786 81.9644489,21.991984 C82.3561924,22.3543287 82.8764128,22.5451503 83.409499,22.5221242 C84.8060922,22.5221242 85.5043287,21.8751102 85.5043287,20.5811423 C85.4801603,20.1688377 85.3846894,19.7638076 85.2221844,19.3840882 C85.0988176,19.0503607 84.9227255,18.7385772 84.7005812,18.4606413 C84.3782164,18.1017234 84.029519,17.7673347 83.6574349,17.4602405 L82.5373347,16.5453307 C82.1611022,16.2432265 81.7877555,15.9296994 81.4172345,15.6048096 C81.0443086,15.2770942 80.6956713,14.9227455 80.3740882,14.5445291 C79.9361122,14.0142685 79.5814629,13.4202806 79.3224048,12.7831864 C79.0313627,12.0698597 78.8888176,11.3046493 78.9034269,10.5343888 C78.8968136,9.90523046 79.0130261,9.28076152 79.2454509,8.69603206 C79.4595391,8.15741483 79.7860521,7.67068136 80.2030461,7.26811623 C80.6254509,6.88046092 81.1191583,6.57841683 81.6566333,6.37887776 C82.2512826,6.1509018 82.8838076,6.03769539 83.5206613,6.0454509 C84.7325651,5.95563126 85.9239679,6.3953507 86.7869339,7.25104208 C87.5698798,8.14743487 87.9771944,9.31118236 87.9241082,10.5001804 L87.9241082,11.7827856 L85.2734669,11.1756914 L85.2734669,10.5001804 C85.3034669,9.9707014 85.122024,9.45096192 84.768998,9.05519038 C84.4171743,8.69573146 83.9290581,8.50298597 83.4265731,8.5250501 C82.9201202,8.49937876 82.4283968,8.69981964 82.0841483,9.07226453 C81.7462124,9.49196393 81.5756513,10.021984 81.6053507,10.5600601 C81.5996393,11.2578156 81.8386774,11.9355511 82.2808016,12.4753707 C82.7665731,13.0779559 83.3139078,13.6281764 83.9139679,14.117014 L85.872024,15.7416433 C86.5173547,16.2716032 87.0743687,16.9008216 87.5222645,17.6056112 Z M112.010681,24.8564128 L112.010681,6.0454509 L114.575832,6.0454509 L114.575832,24.8564128 L112.010681,24.8564128 Z" id="social-logo" fill="#FFFFFF"></path>
      </g>
    </g>
  </g>
</svg>
